Coordinates
version=1
nRows=65
nColumns=12
inDegrees=yes

Units are S.I. units (second, meters, Newtons, ...)
Angles are in degrees

endheader
time	SC_y	SC_z	SC_x	AC_y	AC_z	AC_x	GH_y	GH_z	GH_yy	EL_x	PS_y
       0.0               -42.6          9.592          66.18          38.53         -18.36          -12.2          96.81         -7.945         -29.25           41.0          108.6
    0.0416               -42.6          9.592          66.17          38.53         -18.36          -12.2           96.8         -7.932         -29.24          41.01          108.6
   0.08319               -42.6          9.592          66.17          38.53         -18.36         -12.19          96.79         -7.918         -29.23          41.02          108.6
    0.1248               -42.6          9.592          66.16          38.53         -18.36         -12.19          96.78         -7.904         -29.21          41.03          108.5
    0.1664               -42.6          9.591          66.15          38.53         -18.36         -12.18          96.77         -7.888          -29.2          41.04          108.5
     0.208               -42.6          9.591          66.15          38.53         -18.36         -12.17          96.76         -7.872         -29.19          41.06          108.5
    0.2496              -42.61          9.591          66.14          38.53         -18.36         -12.17          96.75         -7.854         -29.17          41.07          108.5
    0.2912              -42.61          9.591          66.13          38.53         -18.36         -12.16          96.74         -7.835         -29.15          41.09          108.5
    0.3328              -42.61          9.591          66.12          38.54         -18.36         -12.15          96.72         -7.815         -29.14           41.1          108.5
    0.3744              -42.61          9.591          66.11          38.54         -18.36         -12.15          96.71         -7.793         -29.12          41.12          108.5
     0.416              -42.61          9.591           66.1          38.54         -18.36         -12.14          96.69          -7.77          -29.1          41.14          108.4
    0.4576              -42.61          9.591          66.09          38.54         -18.35         -12.13          96.68         -7.745         -29.08          41.16          108.4
    0.4992              -42.61          9.591          66.08          38.54         -18.35         -12.12          96.66         -7.718         -29.05          41.18          108.4
    0.5408              -42.62          9.591          66.07          38.55         -18.35         -12.11          96.64         -7.689         -29.03           41.2          108.4
    0.5824              -42.62          9.591          66.05          38.55         -18.35          -12.1          96.62         -7.657          -29.0          41.23          108.3
    0.6239              -42.62          9.591          66.04          38.55         -18.35         -12.09           96.6         -7.623         -28.97          41.25          108.3
    0.6655              -42.62          9.591          66.02          38.55         -18.35         -12.07          96.57         -7.586         -28.94          41.28          108.3
    0.7071              -42.62          9.591           66.0          38.56         -18.35         -12.06          96.54         -7.545         -28.91          41.32          108.3
    0.7487              -42.63          9.591          65.98          38.56         -18.34         -12.04          96.52         -7.501         -28.87          41.35          108.2
    0.7903              -42.63          9.591          65.96          38.57         -18.34         -12.02          96.48         -7.453         -28.83          41.39          108.2
    0.8319              -42.63          9.591          65.94          38.57         -18.34         -12.01          96.45           -7.4         -28.78          41.43          108.1
    0.8735              -42.64          9.591          65.91          38.57         -18.34         -11.98          96.41         -7.341         -28.73          41.48          108.1
    0.9151              -42.64          9.591          65.89          38.58         -18.33         -11.96          96.37         -7.277         -28.68          41.53          108.0
    0.9567              -42.65          9.591          65.85          38.59         -18.33         -11.94          96.32         -7.205         -28.62          41.59          108.0
    0.9983              -42.65           9.59          65.82          38.59         -18.33         -11.91          96.26         -7.125         -28.55          41.65          107.9
      1.04              -42.66           9.59          65.78           38.6         -18.32         -11.88           96.2         -7.037         -28.47          41.72          107.8
     1.082              -42.66           9.59          65.74          38.61         -18.32         -11.84          96.14         -6.937         -28.39           41.8          107.8
     1.123              -42.67           9.59          65.69          38.62         -18.31          -11.8          96.06         -6.825         -28.29          41.89          107.7
     1.165              -42.68           9.59          65.63          38.63         -18.31         -11.76          95.98         -6.699         -28.18          41.99          107.6
     1.206              -42.69           9.59          65.57          38.64          -18.3          -11.7          95.88         -6.555         -28.06          42.11          107.4
     1.248               -42.7          9.589           65.5          38.65         -18.29         -11.65          95.77         -6.391         -27.92          42.24          107.3
     1.289              -42.71          9.589          65.42          38.67         -18.28         -11.58          95.65         -6.203         -27.76          42.39          107.1
     1.331              -42.72          9.589          65.32          38.68         -18.27          -11.5           95.5         -5.986         -27.57          42.56          107.0
     1.373              -42.74          9.588          65.21          38.71         -18.26         -11.41          95.33         -5.734         -27.36          42.77          106.8
     1.414              -42.75          9.588          65.08          38.73         -18.25         -11.31          95.14         -5.439         -27.11           43.0          106.5
     1.456              -42.78          9.587          64.93          38.76         -18.23         -11.18          94.91         -5.091         -26.81          43.28          106.2
     1.497               -42.8          9.587          64.75          38.79         -18.21         -11.03          94.63         -4.677         -26.46          43.61          105.9
     1.539              -42.83          9.586          64.53          38.83         -18.19         -10.86           94.3         -4.182         -26.03          44.01          105.5
     1.581              -42.87          9.585          64.27          38.88         -18.16         -10.64           93.9         -3.582         -25.52          44.49          105.0
     1.622              -42.91          9.584          63.95          38.94         -18.13         -10.38          93.41          -2.85         -24.89          45.07          104.4
     1.664              -42.97          9.583          63.55          39.01         -18.09         -10.06          92.81         -1.945         -24.12           45.8          103.6
     1.705              -43.04          9.581          63.06           39.1         -18.04         -9.658          92.05         -0.818         -23.16           46.7          102.7
     1.747              -43.12          9.579          62.44          39.22         -17.97         -9.151           91.1         0.6022         -21.94          47.83          101.5
     1.789              -43.24          9.577          61.65          39.37         -17.89         -8.507           89.9          2.408          -20.4          49.28          100.0
      1.83              -43.38          9.573          60.64          39.55         -17.79         -7.683          88.36          4.719         -18.43          51.13          98.14
     1.872              -43.56          9.569          59.35           39.8         -17.65         -6.625          86.37          7.684         -15.89           53.5          95.69
     1.913              -43.79          9.564          57.69           40.1         -17.48         -5.274          83.85          11.47         -12.65          56.53          92.57
     1.955              -44.08          9.557          55.61          40.49         -17.26         -3.575          80.66          16.24         -8.585          60.34          88.64
     1.997              -44.44          9.549          53.07          40.96          -17.0         -1.505          76.79          22.04         -3.625          64.98          83.85
     2.038              -44.85          9.539          50.13          41.51         -16.69         0.8951           72.3          28.77          2.125          70.36           78.3
      2.08               -45.3          9.528          46.95           42.1         -16.36          3.494          67.43          36.05           8.35          76.19           72.3
     2.121              -45.75          9.518          43.76          42.69         -16.02          6.092          62.57          43.34          14.58          82.02          66.29
     2.163              -46.16          9.508          40.82          43.24         -15.72          8.492          58.07          50.07          20.33           87.4          60.74
     2.205              -46.52            9.5          38.28          43.71         -15.45          10.56           54.2          55.87          25.29          92.04          55.95
     2.246              -46.81          9.493           36.2           44.1         -15.23          12.26          51.02          60.63          29.36          95.85          52.03
     2.288              -47.04          9.488          34.55          44.41         -15.06          13.61          48.49          64.42          32.59          98.88           48.9
     2.329              -47.22          9.483          33.25          44.65         -14.93          14.67          46.51          67.39          35.13          101.3          46.46
     2.371              -47.36           9.48          32.24          44.83         -14.82          15.49          44.97           69.7           37.1          103.1          44.55
     2.413              -47.47          9.478          31.45          44.98         -14.74          16.14          43.76           71.5          38.64          104.5          43.06
     2.454              -47.56          9.475          30.83           45.1         -14.67          16.65          42.81          72.92          39.86          105.7          41.89
     2.496              -47.63          9.474          30.34          45.19         -14.62          17.05          42.06          74.05          40.82          106.6          40.96
     2.537              -47.69          9.473          29.94          45.26         -14.58          17.37          41.45          74.95          41.59          107.3          40.21
     2.579              -47.73          9.472          29.62          45.32         -14.55          17.63          40.97          75.69          42.22          107.9          39.61
     2.621              -47.77          9.471          29.36          45.37         -14.52          17.85          40.57          76.29          42.73          108.4          39.12
     2.662               -47.8           9.47          29.14          45.41          -14.5          18.02          40.23          76.78          43.16          108.8          38.71
